<?xml version="1.0" encoding="UTF-8"?>
<svg width="574px" height="182px" viewBox="0 0 574 182" version="1.1" xmlns="http://www.w3.org/2000/svg" xmlns:xlink="http://www.w3.org/1999/xlink">
    <!-- Generator: Sketch 51.2 (57519) - http://www.bohemiancoding.com/sketch -->
    <title>Page 1</title>
    <desc>Created with Sketch.</desc>
    <defs>
        <polygon id="path-1" points="0.950196721 0.644444444 131.817869 0.644444444 131.817869 179.391333 0.950196721 179.391333"></polygon>
        <polygon id="path-3" points="0.000221818182 0.643658537 121.150658 0.643658537 121.150658 182 0.000221818182 182"></polygon>
        <polygon id="path-5" points="0.317517241 0.644444444 62.1746207 0.644444444 62.1746207 179.402889 0.317517241 179.402889"></polygon>
        <polygon id="path-7" points="0.651794118 0.107317308 111.420598 0.107317308 111.420598 114 0.651794118 114"></polygon>
    </defs>
    <g id="Page-1" stroke="none" stroke-width="1" fill="none" fill-rule="evenodd">
        <g id="2018-LOGO" transform="translate(-133.000000, -208.000000)">
            <g id="Page-1" transform="translate(133.000000, 208.000000)">
                <g id="Group-3" transform="translate(442.000000, 0.000000)">
                    <mask id="mask-2" fill="white">
                        <use xlink:href="#path-1"></use>
                    </mask>
                    <g id="Clip-2"></g>
                    <path d="M129.200197,170.755778 C123.727164,170.275778 120.394213,169.320222 111.355852,157.853556 L78.7566721,115.326889 C77.3292131,113.653556 75.6649508,111.022444 75.6649508,111.022444 L75.6649508,107.678 L98.0306885,87.6091111 C106.358639,79.9646667 123.012328,74.4691111 123.012328,74.4691111 L121.823885,70.6446667 L75.9017541,70.6446667 L75.9017541,77.8135556 C81.1357705,79.0091111 83.2780656,80.6802222 83.2780656,83.0691111 C83.2780656,86.4157778 79.7083115,89.5202222 74.7110984,94.0602222 L51.3937213,114.609111 L47.3503607,114.609111 L47.3503607,28.358 C47.3503607,9.96244444 49.729459,1.358 49.729459,1.358 L49.014623,0.642444444 C49.014623,0.642444444 39.0201967,5.18244444 0.950196721,12.8291111 L0.950196721,20.4735556 L9.75396721,20.4735556 C16.654459,20.4735556 16.8934754,26.4468889 16.8934754,36.2424444 L16.8934754,156.420222 C16.8934754,164.726889 13.3237213,170.346889 4.28757377,171.798 L3.32929508,179.380222 L3.32929508,179.391333 L61.8617541,178.640222 L62.8156066,171.471333 L46.1597049,169.320222 C46.1597049,169.320222 47.3503607,163.586889 47.3503607,156.420222 L47.3503607,125.122444 L51.3937213,125.122444 L79.4692951,163.586889 C85.1813443,171.233556 87.5604426,179.391333 87.5604426,179.391333 L130.866672,178.673556 L131.818311,170.993556 L129.200197,170.755778 Z" id="Fill-1" fill="#020303" mask="url(#mask-2)"></path>
                </g>
                <g id="Group-6">
                    <mask id="mask-4" fill="white">
                        <use xlink:href="#path-3"></use>
                    </mask>
                    <g id="Clip-5"></g>
                    <path d="M57.95244,170.068568 C78.9386582,170.068568 89.4306582,150.263861 89.4306582,127.116568 C89.4306582,107.069934 81.5627673,86.5483244 61.7677127,86.5483244 C57.2381855,86.5483244 52.2295309,87.7402024 46.5044036,90.126178 L46.5044036,167.684812 C46.5044036,167.684812 50.55924,170.068568 57.95244,170.068568 M15.9777855,154.558617 L15.9777855,36.1986902 C15.9777855,26.412861 15.74044,20.4490317 8.82636727,20.4490317 L0.000221818182,20.4490317 L0.000221818182,12.8116902 C38.1573855,5.17656829 48.1746945,0.642104878 48.1746945,0.642104878 L48.8889491,1.3567878 C48.8889491,1.3567878 46.5044036,9.94851951 46.5044036,28.323861 L46.5044036,61.2547634 C46.5044036,73.4221293 45.5505855,80.1050805 45.5505855,82.9682512 C51.7504036,74.378739 62.0050582,67.6957878 76.7914582,67.6957878 C106.364258,67.6957878 121.150658,93.4665439 121.150658,119.241739 C121.150658,149.307251 100.162222,182.000666 54.85364,182.000666 C41.01884,182.000666 23.6105491,178.456105 14.3097127,178.456105 L13.59324,177.741422 C13.59324,177.741422 15.9777855,170.068568 15.9777855,154.558617" id="Fill-4" fill="#020303" mask="url(#mask-4)"></path>
                </g>
                <g id="Group-9" transform="translate(125.000000, 0.000000)">
                    <mask id="mask-6" fill="white">
                        <use xlink:href="#path-5"></use>
                    </mask>
                    <g id="Clip-8"></g>
                    <path d="M2.68993103,171.949556 C12.417931,170.756222 16.216,165.020667 16.216,156.420667 L16.216,36.2428889 C16.216,26.4451111 15.9776552,20.474 9.09655172,20.474 L0.317517241,20.474 L0.317517241,12.8295556 C38.2805517,5.18288889 48.2468966,0.642888889 48.2468966,0.642888889 L48.9597241,1.35844444 C48.9597241,1.35844444 46.5873103,9.96066667 46.5873103,28.3584444 L46.5873103,156.420667 C46.5873103,163.587333 45.4,169.320667 45.4,169.320667 L62.1746207,171.471778 L61.2234483,178.640667 L2.68993103,179.402889 L2.68993103,171.949556 Z" id="Fill-7" fill="#020303" mask="url(#mask-6)"></path>
                </g>
                <path d="M423.338379,168.687325 C423.338379,168.687325 424.531121,163.189751 424.531121,156.020452 L424.531121,100.002107 L424.531121,99.6130753 C424.531121,99.4685778 424.517795,99.3418646 424.517795,99.1973671 C424.50891,98.0169338 424.473372,96.8698459 424.402296,95.7627728 C424.395633,95.5893758 424.384527,95.4204249 424.373422,95.2470279 C423.451656,78.7409677 418.334193,70.4645957 403.690342,68.1059519 C401.298194,67.6102144 398.772779,67.3456728 396.114097,67.3456728 C395.745391,67.3456728 395.392233,67.3812414 395.027969,67.3923566 C376.001845,67.8614177 361.811102,80.4593764 353.608502,91.2477818 C353.983871,84.5608823 354.452528,79.4590091 354.921184,75.6042605 C355.940679,67.1945062 356.951289,64.7158184 356.951289,64.7158184 L356.236088,64 C356.236088,64 336.177143,71.409387 308,75.9510545 L308,83.6005297 L317.550821,83.6005297 C324.476277,83.6005297 324.713937,89.5738339 324.713937,99.3729872 L324.713937,156.020452 C324.713937,162.965224 322.219618,168.040421 316.109313,170.365719 C316.036016,170.394618 315.962719,170.421295 315.889422,170.450194 C315.496284,170.592469 315.096482,170.723628 314.690017,170.83478 C313.435083,171.179351 312.14017,171.379424 310.954091,171.492799 L311.102906,171.746226 L315.343027,178.933309 L315.347469,178.942201 L347.356046,178.522047 L368.174614,178.248613 L369.131918,171.077091 L354.086043,168.687325 C354.086043,168.687325 355.278785,163.189751 355.278785,156.020452 L355.278785,125.097988 L355.278785,104.512652 L355.278785,97.223309 C358.190675,94.9469177 361.413522,93.1284723 364.720771,91.7412963 C370.102547,89.4849123 375.715321,88.3778392 380.592903,88.3778392 C389.906064,88.3778392 393.964052,92.2036883 393.964052,108.934275 L393.964052,114.709729 L393.964052,125.431443 L393.964052,155.322418 L393.964052,156.020452 C393.964052,159.973014 393.399887,163.312018 392.011687,165.892966 C391.04772,167.046722 389.868305,168.358315 388.449008,169.747714 C387.036375,170.63026 385.315006,171.246042 383.220489,171.555044 L383.220489,174.204906 L383.220489,179 L401.968973,178.737681 L430.941277,178.333088 L437.044918,178.248613 L437.513574,174.731766 L438,171.077091 L423.338379,168.687325 Z" id="Fill-10" fill="#020303"></path>
                <g id="Group-14" transform="translate(194.000000, 67.000000)">
                    <mask id="mask-8" fill="white">
                        <use xlink:href="#path-7"></use>
                    </mask>
                    <g id="Clip-13"></g>
                    <path d="M60.9184608,87.6090481 C56.156951,91.6495288 49.4855196,95.2167404 43.0533824,95.2167404 C34.9528333,95.2167404 31.6182255,88.7966442 31.6182255,81.4255865 C31.6182255,67.8732788 42.1006373,61.2143365 54.4885392,59.0757788 L60.9184608,57.8881827 L60.9184608,87.6090481 Z M107.609618,94.7434712 C107.609618,94.7434712 102.132441,98.7839519 97.1294216,98.7839519 C92.6027745,98.7839519 91.4107353,94.7434712 91.4107353,87.6090481 L91.4107353,34.1097212 C91.4107353,9.61693269 85.2178922,0.107317308 60.2050098,0.107317308 C43.656049,0.107317308 30.5015196,4.38222115 21.7539902,8.40500962 L21.7473431,8.38952885 C21.7473431,8.38952885 21.3064216,8.58193269 20.4644608,8.99770192 C15.7827157,11.2424135 12.5611078,13.3057788 10.9370098,14.4336635 C9.03151961,15.6278942 6.89116667,17.0167404 4.49822549,18.6488558 L16.048598,38.3625096 C16.048598,38.3625096 19.9526373,37.6813558 25.9017549,36.2460673 C25.9017549,36.2460673 35.1921275,10.8045288 48.7720686,10.8045288 C54.9626961,10.8045288 58.536598,15.3227019 59.9657157,22.2204904 C61.1555392,27.9262596 61.1555392,39.3400096 61.1555392,47.1887596 L52.8201275,48.3763558 C28.5229118,51.9435673 0.651794118,63.3551058 0.651794118,87.3724135 C0.651794118,105.204048 14.466598,114.001548 28.5229118,114.001548 C49.4855196,114.001548 61.8734216,94.2657788 61.8734216,94.2657788 L61.8734216,98.069625 C61.8734216,108.295779 69.7346765,114.001548 81.8832843,114.001548 C99.7483627,114.001548 111.420598,101.161356 111.420598,101.161356 L107.609618,94.7434712 Z" id="Fill-12" fill="#020303" mask="url(#mask-8)"></path>
                </g>
            </g>
        </g>
    </g>
</svg>