<?xml version="1.0" encoding="UTF-8" standalone="no"?>
<svg
   xmlns:dc="http://purl.org/dc/elements/1.1/"
   xmlns:cc="http://creativecommons.org/ns#"
   xmlns:rdf="http://www.w3.org/1999/02/22-rdf-syntax-ns#"
   xmlns:svg="http://www.w3.org/2000/svg"
   xmlns="http://www.w3.org/2000/svg"
   viewBox="0 0 853.30664 261.50668"
   height="261.50668"
   width="853.30664"
   xml:space="preserve"
   id="svg2"
   version="1.1"><metadata
     id="metadata8"><rdf:RDF><cc:Work
         rdf:about=""><dc:format>image/svg+xml</dc:format><dc:type
           rdf:resource="http://purl.org/dc/dcmitype/StillImage" /></cc:Work></rdf:RDF></metadata>
           <defs
     id="defs6" />

    <filter id="f3" x="0" y="0" width="200%" height="200%">
      <feOffset result="offOut" in="SourceAlpha" dx="-20" dy="-20" />
      <feGaussianBlur result="blurOut" in="offOut" stdDeviation="10" />
      <feBlend in="SourceGraphic" in2="blurOut" mode="normal" />
    </filter>
<radialGradient id="grad"
                fx="50%" fy="50%" r="55%"
                spreadMethod="pad">
    <stop offset="30%"   stop-color="#222222" stop-opacity="0"/>
    <stop offset="40%"   stop-color="#222222" stop-opacity="0.0"/>
    <stop offset="65%"   stop-color="#222222" stop-opacity="0.1"/>
    <stop offset="95%" stop-color="#222222" stop-opacity="0.8" />
    <stop offset="100%" stop-color="#222222" stop-opacity="1" />
</radialGradient>

     <g
     transform="matrix(1.3333333,0,0,-1.3333333,0,261.50667)"
     id="g10"><g
       transform="scale(0.1)"
       id="g12">

      <path
         id="path14"
         style="fill:#C8102E;fill-opacity:1;fill-rule:nonzero;stroke:none"
         d="M 980.629,0 C 439.043,0 0,439.051 0,980.637 0,1522.22 439.043,1961.27 980.629,1961.27 1522.2,1961.27 1961.24,1522.22 1961.24,980.637 1961.24,439.051 1522.2,0 980.629,0 " />


      <path
         id="path123"
         style="stroke-width:380; stroke: #ffffff"
         d="M 713.184,110 L713.184,1861.27 M 40,980.637 L 1921.24,980.637" />

      <path
         id="path123"
         style="stroke-width:190; stroke: #003087"
         d="M 713.184,70 L713.184,1891.27 M 20,980.637 L 1941.24,980.637" />

      <path
         id="path14"
         style="fill:url(#grad);fill-opacity:1;fill-rule:nonzero;stroke:none"
         d="M 980.629,0 C 439.043,0 0,439.051 0,980.637 0,1522.22 439.043,1961.27 980.629,1961.27 1522.2,1961.27 1961.24,1522.22 1961.24,980.637 1961.24,439.051 1522.2,0 980.629,0 " />



<!-- 003087 -->



       <path
         id="path14"
         style="fill:#fff;fill-opacity:1;fill-rule:nonzero;stroke:none;"
         d="M 980.629,0 C 439.043,0 0,439.051 0,980.637 0,1522.22 439.043,1961.27 980.629,1961.27 1522.2,1961.27 1961.24,1522.22 1961.24,980.637 1961.24,439.051 1522.2,0 980.629,0 m -0.008,1810.35 c -458.23,0 -829.707,-371.48 -829.707,-829.705 0,-458.235 371.477,-829.715 829.707,-829.715 458.229,0 829.699,371.48 829.699,829.715 0,458.225 -371.47,829.705 -829.699,829.705" />


         <path
         id="path16"
         style="fill:#fff;fill-opacity:1;fill-rule:nonzero;stroke:none;" filter="url(#f3)"
         d="m 1299.1,285.75 c -31.36,0.02 -145.64,203.41 -161,261.398 -32.11,121.411 -25.2,172.704 -23.28,189.102 5.87,50.07 54.46,75.09 57.41,142.801 0.9,20.91 11.45,125.449 19.89,207.109 -20.79,4.07 -41.52,13.45 -59.93,28 55.29,-74.17 -26.1,-163.058 -144.362,-281.332 C 862.305,707.309 583.695,590.809 583.695,590.809 c 0,0 116.508,278.613 242.024,404.132 92.269,92.259 166.636,162.079 230.101,162.079 17.89,0 34.92,-5.55 51.23,-17.7 -14.56,18.41 -23.93,39.12 -28.02,59.92 -81.647,-8.45 -186.198,-18.99 -207.096,-19.91 -67.719,-2.94 -92.746,-51.52 -142.786,-57.39 -5.761,-0.68 -15.824,-1.98 -31.718,-1.98 -29.367,0 -78.629,4.42 -157.387,25.27 -63.07,16.68 -298.078,150.37 -256.512,167.17 21.196,8.58 88.754,14.38 177.719,14.38 85.559,0 190.918,-5.36 293.84,-18.77 128.328,-16.72 246,-37.87 326.2,-53.6 1.29,4.31 2.85,8.5 4.72,12.57 l -81.98,39.29 c 0,0 -65.479,75.14 -58.487,80.32 0.27,0.2 0.613,0.3 1.023,0.3 10.27,0 62.654,-59.89 67.694,-66.71 3.89,-1.29 26.09,-8.7 49.45,-16.47 l -23.19,20.28 c 0,0 -31.74,117.55 -23.47,120.32 0.1,0.03 0.21,0.05 0.33,0.05 8.7,0 37.51,-102.22 39.98,-109.56 5.67,-4.96 24.78,-12.41 48.68,-26.19 l -25.13,64.62 c 0,0 11.36,106.61 19.88,106.61 0.07,0 0.14,0 0.21,-0.02 8.56,-1.71 -1.69,-88.92 -3.86,-99.78 3.11,-4.77 22.38,-34.33 41.71,-63.97 11.88,4.48 24.67,6.69 37.8,6.69 15.07,0 30.57,-2.92 45.61,-8.67 -19.25,41.01 -17.8,83.75 7.74,109.27 8.08,8.1 17.9,13.75 28.84,17.1 1.32,7.46 4.78,14.54 10.46,20.22 7.38,7.38 17.11,11.05 26.96,11.05 10.31,0 20.76,-4.03 28.76,-12.04 7.67,-7.65 11.66,-17.54 11.99,-27.39 12.33,25.41 26.88,59.7 25.86,70.81 -2.37,25.14 -31.52,69.64 -31.81,70.08 -1.89,2.88 -1.1,6.76 1.79,8.67 1.05,0.69 2.24,1.02 3.42,1.02 2.03,0 4.02,-0.99 5.21,-2.82 1.28,-1.92 31.18,-47.54 33.82,-75.79 1.5,-16.16 -17.06,-56.88 -27.17,-77.68 14.2,-7.77 28.04,-18.03 40.68,-30.67 12.64,-12.63 22.89,-26.47 30.67,-40.68 20,9.73 58.4,27.26 75.71,27.26 0.69,0 1.35,-0.02 1.97,-0.08 28.24,-2.66 73.87,-32.54 75.79,-33.81 2.87,-1.89 3.67,-5.77 1.78,-8.65 -1.2,-1.82 -3.2,-2.81 -5.23,-2.81 -1.17,0 -2.36,0.33 -3.42,1.03 -0.44,0.29 -44.94,29.44 -70.08,31.79 -0.38,0.04 -0.79,0.05 -1.22,0.05 -12.23,0 -45.07,-13.97 -69.61,-25.89 9.87,-0.34 19.76,-4.33 27.41,-12 15.66,-15.65 16.09,-40.59 0.98,-55.7 -5.68,-5.68 -12.75,-9.17 -20.2,-10.47 -3.37,-10.95 -9.02,-20.77 -17.11,-28.85 -14.08,-14.09 -33.38,-20.84 -54.76,-20.84 -17.38,0 -36.13,4.47 -54.53,13.1 10.78,-28.12 11.6,-57.89 2,-83.41 29.62,-19.32 59.22,-38.6 63.97,-41.71 7.77,1.55 54.49,7.22 81.16,7.22 10.67,0 18.13,-0.9 18.61,-3.34 1.72,-8.56 -106.58,-20.12 -106.58,-20.12 l -64.63,25.15 c 13.79,-23.91 21.22,-43.02 26.19,-48.69 7.47,-2.5 112.26,-32.04 109.51,-40.31 -0.32,-0.96 -2.16,-1.37 -5.16,-1.37 -23.1,0 -115.15,24.85 -115.15,24.85 l -20.3,23.19 c 7.79,-23.37 15.18,-45.56 16.49,-49.46 7.1,-5.24 71.58,-61.69 66.4,-68.698 -0.26,-0.363 -0.7,-0.524 -1.31,-0.524 -11.32,0 -79,58.992 -79,58.992 l -39.31,81.99 c -4.05,-1.88 -8.26,-3.42 -12.57,-4.73 15.73,-80.19 36.9,-197.861 53.63,-326.181 27.34,-209.949 21.19,-429.969 4.39,-471.571 -1.35,-3.347 -3.46,-4.898 -6.2,-4.898" /><path
         id="path18"
         style="fill:#fff;fill-opacity:1;fill-rule:nonzero;stroke:none"
         d="m 2720.49,1202.3 c 0,103.24 -17.56,158.64 -227.13,158.64 -208.32,0 -225.89,-55.4 -225.89,-158.64 V 819.602 c 0,-103.231 17.57,-158.633 225.89,-158.633 209.57,0 227.13,55.402 227.13,158.633 z M 2493.36,581.648 c -292.41,0 -326.28,90.653 -326.28,226.614 v 405.378 c 0,134.71 33.87,226.61 326.28,226.61 293.65,0 327.54,-91.9 327.54,-226.61 V 808.262 c 0,-135.961 -33.89,-226.614 -327.54,-226.614" /><path
         id="path20"
         style="fill:#fff;fill-opacity:1;fill-rule:nonzero;stroke:none"
         d="M 3526.03,1430.18 V 820.852 c 0,-103.231 20.08,-158.622 170.67,-158.622 153.09,0 170.67,55.391 170.67,158.622 v 609.328 h 100.38 V 808.262 c 0,-135.961 -35.13,-226.614 -271.05,-226.614 -134.28,0 -194.51,55.403 -220.87,98.204 -26.35,-42.801 -86.59,-98.204 -220.87,-98.204 -235.92,0 -271.06,90.653 -271.06,226.614 v 621.918 h 100.39 V 820.852 c 0,-103.231 17.58,-158.622 170.67,-158.622 150.59,0 170.67,55.391 170.67,158.622 v 609.328 h 100.4" /><path
         id="path22"
         style="fill:#fff;fill-opacity:1;fill-rule:nonzero;stroke:none"
         d="m 4681.92,1202.3 c 0,103.24 -13.8,158.64 -223.38,158.64 -209.57,0 -223.37,-55.4 -223.37,-158.64 V 989.551 h 446.75 z m 100.4,-611.831 h -100.4 V 901.422 H 4235.17 V 590.469 h -100.39 v 623.171 c 0,134.71 31.37,226.61 323.76,226.61 292.41,0 323.78,-91.9 323.78,-226.61 V 590.469" /><path
         id="path24"
         style="fill:#fff;fill-opacity:1;fill-rule:nonzero;stroke:none"
         d="m 5265.85,580.398 c -292.4,0 -323.77,91.903 -323.77,226.602 v 66.719 h 100.39 V 818.34 c 0,-103.238 13.81,-158.629 223.38,-158.629 209.57,0 223.38,55.391 223.38,158.629 v 12.59 c 0,76.789 -37.66,107 -114.2,119.59 L 5114,992.07 c -119.21,18.88 -171.92,85.6 -171.92,178.76 v 41.55 c 0,135.97 31.37,226.61 323.77,226.61 292.4,0 323.77,-90.64 323.77,-226.61 v -28.96 h -100.39 v 17.63 c 0,103.23 -13.81,158.62 -223.38,158.62 -209.57,0 -223.38,-55.39 -223.38,-158.62 v -20.14 c 0,-55.39 20.09,-89.39 94.12,-101.97 l 278.6,-45.33 c 114.19,-18.88 174.43,-76.79 174.43,-181.29 V 807 c 0,-134.699 -31.37,-226.602 -323.77,-226.602" /><path
         id="path26"
         style="fill:#fff;fill-opacity:1;fill-rule:nonzero;stroke:none"
         d="m 6299.39,1193.5 c 0,103.23 -46.43,157.36 -168.15,157.36 H 5852.65 V 911.5 h 278.59 c 122.98,0 168.15,55.387 168.15,158.63 z M 6131.24,832.18 H 5852.65 V 590.469 h -100.4 v 839.711 h 378.99 c 205.8,0 268.55,-90.65 268.55,-226.61 v -144.78 c 0,-134.7 -62.75,-226.61 -268.55,-226.61" /></g></g>

         <text x="360" y="240" style="font: bold 50px sans-serif; fill: #fff;">Norway Day 2018</text>



       </svg>